<svg height="512pt" viewBox="-54 0 512 512.001" width="512pt" xmlns="http://www.w3.org/2000/svg"><path d="m356.125 175.261719v-115.691407c9.035156-15.648437 3.671875-35.65625-11.976562-44.691406-8.644532-4.992187-18.078126-7.351562-27.390626-7.363281v-.015625h-134.453124c0 24.476562 19.84375 44.316406 44.316406 44.316406h32.683594l-78.546876 136.050782-170.507812 294.929687c20.980469 12.109375 47.804688 4.921875 59.917969-16.058594l72.535156-125.234375 5.863281 3.386719c-9.347656 16.191406-3.800781 36.894531 12.390625 46.242187 16.191407 9.351563 36.898438 3.800782 46.246094-12.390624.625-1.078126 1.175781-2.179688 1.664063-3.296876 15.949218 9.066407 34.144531 14.75 53.679687 16.015626 68.953125 4.464843 128.46875-47.8125 132.9375-116.761719 2.519531-38.867188-12.992187-74.738281-39.359375-99.4375zm0 0" fill="#ff3e6c"/><path d="m134.714844 319.574219 76.039062-131.707031c24.226563-41.957032 77.878906-56.335938 119.835938-32.109376l-58.996094 102.1875c-24.222656 41.957032-94.917969 85.851563-136.878906 61.628907zm0 0" fill="#e41743"/><path d="m202.300781 480.082031c0 13.484375-10.929687 24.417969-24.417969 24.417969-13.484374 0-24.414062-10.933594-24.414062-24.417969s10.929688-24.417969 24.414062-24.417969c13.488282 0 24.417969 10.933594 24.417969 24.417969zm0 0" fill="#ffb555"/><path d="m104.714844 319.574219 76.039062-131.707031c24.226563-41.957032 77.878906-56.335938 119.835938-32.109376l-58.996094 102.1875c-24.222656 41.957032-94.917969 85.851563-136.878906 61.628907zm0 0" fill="#ff3e6c"/><path d="m223.535156 480.082031c0-20.777343-13.882812-38.300781-32.878906-43.824219v-40.582031h-25.542969v59.988281h12.769531c13.488282 0 24.417969 10.933594 24.417969 24.417969zm0 0" fill="#ffe477"/><path d="m393.203125 91.792969h-37.078125v-32.21875h4.859375c17.792969-.003907 32.21875 14.421875 32.21875 32.21875zm0 0" fill="#ffe477"/><path d="m366.140625 115.585938h-10.015625v-23.792969h33.808594c0 13.140625-10.652344 23.792969-23.792969 23.792969zm0 0" fill="#ffe477"/><path d="m356.125 59.570312h-66.066406v7.335938c0 36.488281 29.578125 66.066406 66.066406 66.066406zm0 0" fill="#787680"/><path d="m226.621094 51.816406h30c-24.476563 0-44.316406-19.839844-44.316406-44.316406h-30c0 24.476562 19.84375 44.316406 44.316406 44.316406zm0 0" fill="#e41743"/><path d="m40.25 482.796875 170.503906-294.929687 78.550782-136.050782h-30l-78.550782 136.050782-170.503906 294.929687c11.675781 6.738281 25.167969 7.503906 36.921875 3.234375-2.355469-.859375-4.671875-1.9375-6.921875-3.234375zm0 0" fill="#e41743"/><path d="m173.46875 480.082031c0-9.921875 5.917969-18.460937 14.417969-22.28125-3.054688-1.371093-6.4375-2.132812-10-2.132812-13.484375 0-24.417969 10.929687-24.417969 24.417969 0 13.484374 10.933594 24.414062 24.417969 24.414062 3.5625 0 6.945312-.761719 10-2.132812-8.5-3.824219-14.417969-12.363282-14.417969-22.285157zm0 0" fill="#ff8243"/><path d="m134.714844 319.574219 76.039062-131.707031c13.542969-23.457032 36.285156-38.292969 61.039063-42.582032-35.234375-6.136718-72.117188 9.808594-91.039063 42.582032l-76.039062 131.707031c12.574218 7.257812 27.734375 8.402343 43.445312 5.308593-4.71875-1.128906-9.226562-2.875-13.445312-5.308593zm0 0" fill="#e41743"/><g fill="#ffb555"><path d="m192.882812 455.667969h-12.769531v-59.992188h-15v59.992188h12.769531c13.488282 0 24.417969 10.929687 24.417969 24.417969h15c0-13.488282-10.929687-24.417969-24.417969-24.417969zm0 0"/><path d="m360.984375 59.570312h-4.859375v32.222657h15v-30.589844c-3.1875-1.058594-6.597656-1.632813-10.140625-1.632813zm0 0"/><path d="m371.125 91.792969h-15v23.792969h10.015625c1.710937 0 3.378906-.183594 4.984375-.523438zm0 0"/></g><path d="m320.058594 66.90625v-7.332031h-30v7.332031c0 36.488281 29.578125 66.066406 66.066406 66.066406v-7.191406c-21.40625-10.925781-36.066406-33.1875-36.066406-58.875zm0 0" fill="#57565c"/><path d="m363.625 172.066406v-48.980468h2.515625c14.671875 0 27.015625-10.148438 30.386719-23.792969h4.175781v-7.5c0-19.878907-14.675781-36.394531-33.765625-39.273438 3.960938-16.570312-3.023438-34.890625-19.035156-44.136719-7.285156-4.203124-15.34375-6.886718-23.644532-7.902343v-.480469h-149.453124v7.5c0 28.570312 23.246093 51.816406 51.816406 51.816406h19.695312l-40.839844 70.730469 12.992188 7.5 53.828125-93.230469h-45.675781c-17.730469 0-32.574219-12.601562-36.046875-29.316406 133.09375 0 115.855469-.007812 126.175781.015625 8.285156.011719 16.460938 2.207031 23.652344 6.359375 12.039062 6.953125 16.179687 22.40625 9.226562 34.445312l-1.003906 1.742188v120.949219l2.371094 2.222656c25.800781 24.171875 39.289062 58.242187 37.003906 93.480469-4.203125 64.859375-60.082031 113.960937-124.96875 109.761718-29.21875-1.890624-47.171875-13.183593-57.691406-19.164062-3.527344 8.050781-3.703125 8.574219-4.632813 10.183594-7.265625 12.582031-23.414062 16.910156-36 9.644531-12.613281-7.28125-16.929687-23.382813-9.644531-36l3.75-6.496094-15.324219-8.84375c41.167969-5.398437 86.019531-39.421875 104.605469-71.605469l62.746094-108.679687-6.496094-3.75c-45.582031-26.320313-103.765625-10.730469-130.082031 34.851563l-79.792969 138.199218c8.1875 4.730469 20.375 13.242188 44.023438 11.496094l-74.820313 129.175781c-8.878906 15.378907-27.03125 21.582031-42.789063 16.398438l80.238282-138.789063-12.984375-7.507812-88.136719 152.449218 6.5 3.75c24.71875 14.277344 56.042969 5.65625 70.160156-18.789062l60.144532-103.851562c1.542968 12.882812 8.933593 24.527343 20.808593 31.210937v65.304687h20.269531c9.328126 0 16.917969 7.589844 16.917969 16.917969v7.5h36.234375v-7.5c0-21.558593-13.269531-41.011719-32.878906-49.128906v-33.101563c5.292969-2.96875 9.988281-7.125 13.636719-12.359374 15.675781 7.785156 32.550781 12.304687 50.269531 13.453124 73.140625 4.734376 136.167969-50.613281 140.90625-123.761718 2.503906-38.636719-11.804688-76.03125-39.34375-103.117188zm2.515625-63.980468h-2.515625v-8.792969h16.976562c-2.714843 5.21875-8.179687 8.792969-14.460937 8.792969zm18.402344-23.792969h-20.917969v-17.078125c9.851562 1.050781 17.992188 7.910156 20.917969 17.078125zm-197.292969 107.324219c21-36.367188 65.882812-49.886719 102.925781-32.816407l-55.074219 95.394531c-9.070312 15.707032-24.933593 31.5625-43.3125 43.71875l16.394532-28.398437-12.988282-7.5-28.492187 49.34375c-7.019531 2.898437-13.851563 4.96875-20.371094 6.207031l24.023438-41.613281-12.992188-7.5-29.0625 50.339844c-4.625-.320313-8.976562-1.179688-12.984375-2.582031zm28.03125 280.964843h-6.371094c-3.378906-13.992187-16.007812-24.414062-31.027344-24.414062h-5.269531v-44.992188h10.542969v38.710938l5.40625 1.570312c13.726562 3.996094 23.941406 15.445313 26.71875 29.125zm0 0"/><path d="m336.125 52.070312h-53.566406v14.835938c0 32.214844 20.617187 60.398438 51.300781 70.132812l4.535156-14.296874c-24.371093-7.730469-40.765625-30.089844-40.835937-55.671876h38.566406zm0 0"/><path d="m177.882812 497c-10.484374 0-18.546874-9.523438-16.636718-19.984375l-14.757813-2.695313c-.347656 1.894532-.519531 3.832032-.519531 5.765626 0 17.597656 14.316406 31.914062 31.914062 31.914062 6.601563 0 12.933594-1.996094 18.320313-5.777344l-8.617187-12.277344c-2.847657 1.996094-6.203126 3.054688-9.703126 3.054688zm0 0"/><path d="m61.820312 451.65625-12.992187-7.5 31.269531-54.160156 12.992188 7.5zm36.269532-62.820312-12.992188-7.5 7.5-12.988282 12.992188 7.5zm12.5-21.648438-12.992188-7.5 7.5-12.992188 12.992188 7.5zm0 0" fill="#fff"/><path d="m349.707031 339.519531-11.023437-10.171875c14.351562-15.554687 23.007812-35.710937 24.367187-56.75.132813-2.011718.199219-4.046875.199219-6.0625 0-9.894531-1.566406-19.65625-4.65625-29.007812l14.242188-4.707032c3.589843 10.875 5.414062 22.21875 5.414062 33.714844 0 2.335938-.078125 4.703125-.226562 7.03125-1.585938 24.457032-11.640626 47.878906-28.316407 65.953125zm5.550781-110.609375c-1.878906-4.210937-4.09375-8.3125-6.582031-12.195312l12.628907-8.097656c2.894531 4.519531 5.46875 9.289062 7.652343 14.179687zm-11.957031-19.722656c-2.855469-3.609375-6.015625-7.042969-9.394531-10.207031l10.253906-10.949219c3.917969 3.671875 7.585938 7.65625 10.902344 11.847656zm0 0" fill="#fff"/><path d="m226.441406 249.191406-12.988281-7.5 18.90625-32.746094 12.988281 7.5zm23.90625-41.40625-12.988281-7.5 7.5-12.992187 12.988281 7.5zm12.5-21.652344-12.988281-7.5 7.5-12.988281 12.988281 7.5zm0 0" fill="#fff"/></svg>